<svg height="512pt" viewBox="0 -50 512 511" width="512pt" xmlns="http://www.w3.org/2000/svg"><path d="m458.546875 210.84375-25.140625-85.070312c-.125-.421876-.277344-.835938-.457031-1.238282-1.488281-3.34375-3.332031-6.464844-5.464844-9.328125h2.335937c5.523438 0 10-4.480469 10-10 0-5.523437-4.476562-10-10-10h-62.226562v-26.117187c0-37.820313-30.765625-68.589844-68.585938-68.589844h-289.007812c-5.523438 0-10 4.476562-10 10v342.46875c0 5.519531 4.476562 10 10 10h55.542969c4.75 27.128906 28.476562 47.808594 56.945312 47.808594s52.195313-20.683594 56.945313-47.808594h169.03125c4.75 27.128906 28.472656 47.808594 56.941406 47.808594 28.472656 0 52.199219-20.683594 56.949219-47.808594h39.644531c5.523438 0 10-4.480469 10-10v-74.253906c0-32.863282-22.824219-60.488282-53.453125-67.871094zm-21.429687-1.941406h-69.523438v-93.644532l20.496094.109376h.019531c11.269531.035156 21.53125 6.59375 26.320313 16.753906zm-417.117188-188.402344h269.007812v104.890625c0 5.519531 4.476563 10 10 10 5.519532 0 10-4.480469 10-10v-103.855469c22.007813 4.625 38.585938 24.1875 38.585938 47.550782v273.882812h-38.585938v-127.132812c0-5.523438-4.480468-10-10-10-5.523437 0-10 4.476562-10 10v127.132812h-109.574218c-4.75-27.128906-28.476563-47.8125-56.945313-47.8125s-52.195312 20.683594-56.945312 47.8125h-45.542969zm102.488281 370.277344c-20.851562 0-37.8125-16.960938-37.8125-37.808594 0-20.851562 16.960938-37.8125 37.8125-37.8125 20.851563 0 37.8125 16.960938 37.8125 37.8125 0 20.847656-16.960937 37.808594-37.8125 37.808594zm282.917969 0c-20.847656 0-37.8125-16.960938-37.8125-37.808594 0-20.851562 16.964844-37.8125 37.8125-37.8125 20.851562 0 37.816406 16.960938 37.816406 37.8125 0 20.847656-16.964844 37.808594-37.816406 37.808594zm86.59375-47.808594h-29.644531c-4.75-27.128906-28.476563-47.8125-56.945313-47.8125-14.445312 0-27.671875 5.324219-37.816406 14.113281v-80.367187h74.59375c27.464844 0 49.8125 22.347656 49.8125 49.8125zm0 0"/><path d="m107.191406 258.515625h103.453125c16.277344 0 29.519531-13.242187 29.519531-29.519531v-106.792969c0-5.523437-4.476562-10-10-10h-27.574218c-1.363282-22.910156-20.429688-41.132813-43.671875-41.132813-23.246094 0-42.3125 18.222657-43.675781 41.132813h-27.570313c-5.523437 0-10 4.476563-10 10v106.792969c0 16.277344 13.242187 29.519531 29.519531 29.519531zm51.726563-167.445313c12.210937 0 22.292969 9.265626 23.605469 21.132813h-47.210938c1.308594-11.867187 11.394531-21.132813 23.605469-21.132813zm-61.246094 41.132813h17.492187v22.355469c0 5.519531 4.476563 10 10 10 5.523438 0 10-4.480469 10-10v-22.355469h47.507813v22.355469c0 5.519531 4.476563 10 10 10s10-4.480469 10-10v-22.355469h17.492187v96.792969c0 5.25-4.269531 9.519531-9.519531 9.519531h-103.453125c-5.25 0-9.519531-4.269531-9.519531-9.519531zm0 0"/><path d="m299.011719 180.429688c-4.121094 0-7.914063-2.632813-9.363281-6.484376-1.441407-3.835937-.339844-8.335937 2.765624-11.03125 3.203126-2.785156 7.902344-3.25 11.585938-1.136718 3.558594 2.039062 5.558594 6.226562 4.867188 10.28125-.804688 4.753906-5.011719 8.371094-9.855469 8.371094zm0 0"/></svg>